<svg width="72" height="40" viewBox="0 0 72 40" fill="none" xmlns="http://www.w3.org/2000/svg">
<path d="M57.0582 19.7298C58.7621 20.2756 60.4203 20.6622 62.048 19.7146C62.7402 19.3129 63.3487 18.7898 64.0029 18.3274C65.5014 17.2813 67.0683 16.3489 68.8558 15.8865C69.0155 15.8486 69.1752 15.8107 69.335 15.7804C70.7422 15.5529 71.6549 16.311 71.7842 17.8043C71.8983 19.1688 71.6777 20.5106 71.3126 21.8068C70.8182 23.5958 70.263 25.3621 69.6697 27.1208C68.7569 29.827 68.1256 32.609 67.479 35.3835C67.2736 36.278 67.0226 37.1573 66.7716 38.0367C66.688 38.3247 66.5358 38.6052 66.3761 38.8629C65.8741 39.674 65.0678 39.8484 64.3908 39.1889C63.7671 38.5749 63.227 37.8623 62.7478 37.1422C61.6905 35.5578 60.9527 33.8219 60.2909 32.0405C60.1464 31.6463 59.9715 31.2597 59.7661 30.8883C59.4162 30.2515 58.8838 29.8346 58.1764 29.6299C56.83 29.2357 55.4685 29.0614 54.0689 29.1751C53.9472 29.1826 53.8255 29.213 53.6049 29.2585C53.9092 29.4631 54.1298 29.6072 54.3503 29.7663C54.6318 29.971 54.9284 30.1681 55.187 30.4107C56.0846 31.2673 56.2748 32.2148 55.7195 33.3216C54.4568 35.8611 52.5172 37.6728 49.8702 38.772C48.0522 39.5224 46.5385 39.0676 45.1161 37.8699C43.6709 36.6494 42.4843 35.2243 41.5563 33.5793C41.3358 33.1927 41.0619 33.0639 40.636 33.1321C38.5366 33.458 36.4296 33.6172 34.3074 33.5566C34.2238 33.5566 34.1477 33.5566 34.0412 33.5642C34.0944 34.0038 34.1781 34.4283 34.1781 34.8529C34.1781 35.5882 34.1401 36.331 34.0868 37.0663C34.026 37.8623 34.1173 38.6128 34.528 39.3102C34.5584 39.3557 34.5584 39.4163 34.5965 39.5376C34.4367 39.5148 34.3302 39.5073 34.2314 39.4769C32.885 39.151 31.7365 38.4536 30.7096 37.5439C30.3141 37.1952 30.2988 37.2104 30.0478 37.688C29.6751 38.3929 29.4165 39.1282 29.5154 40C29.348 39.9469 29.2263 39.9394 29.1427 39.8787C28.5494 39.4466 27.9028 39.06 27.3856 38.5445C25.7958 36.9451 24.8146 34.9969 24.3734 32.791C24.2974 32.3968 24.1148 32.2148 23.7345 32.1239C20.517 31.3431 17.2919 30.5623 14.0896 29.7284C12.0206 29.1902 10.1114 28.2351 8.16418 27.3785C6.33864 26.575 4.49028 25.8018 2.65713 25.0134C1.47053 24.5055 0.618611 23.6868 0.268716 22.4057C-0.0659661 21.1852 0.649037 20.1695 1.9117 20.0785C2.37569 20.0482 2.83968 20.0785 3.34171 20.0785C3.23522 19.8359 3.0983 19.6009 3.02224 19.3508C2.87011 18.8277 2.67995 18.2971 2.63431 17.7589C2.56585 17.0236 2.92336 16.4399 3.54708 16.0457C3.79049 15.8865 4.06432 15.7121 4.33815 15.6818C5.27374 15.5605 6.00395 15.0071 6.81784 14.6281C8.46083 13.8701 10.1266 13.1651 11.7772 12.4222C13.5571 11.6187 15.3218 10.7848 17.1017 9.98887C19.8781 8.74567 22.7913 7.98762 25.8111 7.62376C26.1534 7.58586 26.2979 7.3736 26.3587 7.07796C26.5945 5.90299 26.8303 4.72801 27.0509 3.55304C27.1194 3.1816 27.1498 2.81015 27.2259 2.43871C27.2487 2.325 27.3856 2.24162 27.4617 2.14307C27.5453 2.23404 27.667 2.30984 27.7127 2.41597C27.8116 2.61306 27.842 2.84806 27.9409 3.03757C28.1919 3.51514 28.6635 3.59852 29.0438 3.2195C29.2644 2.99966 29.4545 2.72677 29.5838 2.44629C29.812 1.96872 29.9794 1.46841 30.1848 0.983256C30.2456 0.846808 30.3749 0.748261 30.4738 0.634554C30.5499 0.763422 30.6335 0.88471 30.7096 1.01358C30.7324 1.05148 30.7172 1.11212 30.7476 1.15003C30.8389 1.28648 30.9378 1.51389 31.0519 1.52905C31.2192 1.54421 31.4474 1.44567 31.5615 1.3168C31.8125 1.02116 32.0027 0.680037 32.2157 0.354076C32.2765 0.263111 32.3145 0.156984 32.3982 0.0963399C32.4667 0.0356961 32.596 -0.0173673 32.6568 0.00537415C32.7177 0.0356961 32.7633 0.172145 32.7633 0.263111C32.7557 0.41472 32.6949 0.558749 32.6568 0.710359C32.5884 0.990837 32.6036 1.29406 32.8622 1.43809C33.0448 1.53663 33.3718 1.57453 33.5468 1.47599C34.0564 1.19551 34.5204 0.831647 35.0148 0.513266C35.1137 0.445042 35.2582 0.437462 35.3799 0.399559C35.3951 0.513266 35.4408 0.642135 35.418 0.748261C35.3495 1.1197 35.2202 1.50631 35.5625 1.80195C35.9124 2.10517 36.3003 1.95356 36.6578 1.79437C36.9925 1.65034 37.2967 1.44567 37.6238 1.29406C37.7227 1.24857 37.8596 1.27131 37.9813 1.26373C37.9737 1.36986 37.9737 1.47599 37.9509 1.58211C37.9053 1.78679 37.814 1.98388 37.7988 2.18855C37.7683 2.61306 37.9585 2.9087 38.3845 2.97692C38.7496 3.02999 39.1223 2.97692 39.495 2.96176C39.6243 2.96176 39.746 2.90112 39.8753 2.89354C40.0731 2.88596 40.1568 2.99208 40.1111 3.1816C40.0959 3.23466 40.0655 3.28772 40.0427 3.34837C39.7308 4.18222 40.0655 4.66737 40.9706 4.67495C41.351 4.67495 41.7237 4.67495 42.0964 4.67495C42.4007 4.67495 42.4615 4.79624 42.2942 5.04639C42.0736 5.37994 41.8606 5.72106 42.0888 6.11524C42.3246 6.53217 42.7582 6.49427 43.1613 6.49427C43.3591 6.49427 43.5644 6.46394 43.7622 6.47153C43.8687 6.47153 44.0208 6.50185 44.0741 6.57007C44.1121 6.62314 44.0589 6.78233 44.0056 6.87329C43.5873 7.58586 43.6861 7.9194 44.4468 8.29084C44.5989 8.36665 44.8119 8.41213 44.5989 8.73809C44.8956 8.60164 45.1009 8.48793 45.3139 8.41213C46.4092 8.00278 47.497 7.53279 48.6151 7.19925C50.6917 6.58523 52.6541 6.91119 54.4796 8.10133C57.256 9.91306 59.0435 12.3767 59.4923 15.697C59.6824 17.0766 59.3325 18.3274 58.1612 19.2067C57.8569 19.4342 57.4842 19.5706 57.0886 19.7677L57.0582 19.7298ZM10.9177 24.0507C10.7199 24.2023 10.7656 24.3766 10.8949 24.5434C11.047 24.7405 11.2067 24.93 11.3817 25.0968C11.9446 25.6501 13.0247 25.3318 13.2224 24.5965C12.9714 24.7102 12.69 24.8315 12.4086 24.9603L12.3477 24.8694C12.7661 24.5813 13.0399 24.2023 13.1312 23.702C13.3061 22.7696 13.0171 21.9281 12.5455 21.1549C11.7924 19.9117 10.7199 18.9869 9.4953 18.2289C9.05413 17.956 8.59014 17.721 8.13375 17.4632C8.64338 18.0393 9.19865 18.5397 9.70828 19.0854C10.4613 19.8966 11.2067 20.7153 11.6631 21.7462C11.8989 22.2768 12.0739 22.8302 11.9446 23.4215C11.8381 23.9142 11.4425 24.1492 10.9177 24.0507C11.2372 23.6792 11.3132 23.2471 11.1611 22.7999C11.0318 22.4133 10.8873 22.0191 10.6743 21.678C9.63982 19.9799 8.33152 18.5018 6.7722 17.2661C6.35385 16.9402 5.86704 16.6673 5.37262 16.4626C4.71847 16.1897 3.97304 16.4399 3.73724 16.9402C4.17841 16.6521 4.20884 16.6445 4.71086 16.8416C4.91624 16.925 5.12922 17.0084 5.31177 17.1297C6.93954 18.1834 8.24785 19.5403 9.19104 21.2383C9.26711 21.3748 9.32796 21.5112 9.39642 21.6477C9.45727 21.7765 9.51812 21.913 9.57136 22.0494C8.27067 20.8062 7.22859 19.3204 5.7073 18.3274C6.47555 19.1461 7.26662 19.9269 7.98923 20.7683C8.85636 21.7765 9.65503 22.8302 10.4841 23.8687C10.5906 24.0052 10.6971 24.1644 10.9101 24.0507H10.9177ZM29.1503 16.4626C29.1503 16.4626 29.1046 16.4778 29.0894 16.4853C29.1655 16.7052 29.2568 16.9174 29.3024 17.1448C29.5154 18.1076 29.7512 19.0627 29.9185 20.033C29.987 20.4499 30.0478 20.5257 30.4434 20.3211C31.6604 19.6843 32.9307 19.2067 34.2618 18.8959C35.5625 18.5851 36.886 18.4335 38.2171 18.6609C39.5406 18.8884 40.2633 19.9269 40.0351 21.2459C39.67 23.3912 38.6583 25.2181 37.2055 26.8175C36.3231 27.7803 35.243 28.1441 33.988 27.894C33.06 27.712 32.132 27.4619 31.2268 27.189C30.4662 26.9616 29.7208 26.6432 28.9677 26.3855C28.846 26.34 28.6178 26.3324 28.5646 26.4006C28.1614 26.9161 27.7887 27.4619 27.4008 28.0001C27.4388 28.0304 27.4693 28.0532 27.5073 28.0835C27.9333 27.5604 28.3592 27.0374 28.7852 26.5219C28.093 28.3185 26.5717 29.5162 25.5068 31.0854C26.0088 30.9641 26.3663 30.676 26.6326 30.2515C26.9444 29.7436 28.1462 28.5838 28.7091 28.3412C28.0169 29.2964 27.3247 30.2591 26.5869 31.2749C26.7619 31.1991 26.8912 31.1536 27.0129 31.0854C27.5681 30.7518 27.9713 30.2667 28.344 29.7436C28.5342 29.4783 28.77 29.2433 29.0134 29.0235C29.0818 28.9628 29.2416 28.9931 29.3557 28.9856C29.3404 29.0917 29.3557 29.2206 29.31 29.3039C29.1959 29.5086 29.0666 29.7057 28.9221 29.8876C28.5646 30.35 28.1919 30.8125 27.8268 31.2673C27.842 31.2976 27.8648 31.3203 27.88 31.3507C28.2071 31.146 28.5798 30.9792 28.8612 30.7215C29.1579 30.4486 29.3709 30.0847 29.6371 29.7739C29.8196 29.5617 30.0098 29.357 30.2228 29.1675C30.276 29.1144 30.4434 29.1144 30.4966 29.1675C30.5499 29.2054 30.5499 29.3646 30.5118 29.4404C30.4282 29.6223 30.3141 29.7891 30.2 29.9483C29.9946 30.2515 29.7816 30.5547 29.5534 30.8883C30.0326 30.9868 30.2912 30.7821 30.5118 30.4789C30.7476 30.1454 30.9606 29.7891 31.2344 29.4859C31.3181 29.3873 31.5615 29.4328 31.7365 29.4101C31.706 29.5541 31.7212 29.7284 31.6452 29.8422C31.4018 30.2136 31.1279 30.5547 30.8617 30.9186C31.2953 31.0854 31.5311 31.002 31.8049 30.6002C32.0255 30.2818 32.2309 29.9483 32.4819 29.6602C32.5656 29.5617 32.7861 29.592 32.9459 29.5617C32.9231 29.7057 32.9459 29.8801 32.8774 29.9938C32.6188 30.3955 32.3298 30.7821 32.0483 31.1763C32.345 31.381 32.5884 31.2749 32.7633 31.0702C32.9915 30.7897 33.1817 30.4789 33.3947 30.1833C33.5011 30.0317 33.5924 29.8497 33.7369 29.7436C33.8434 29.6602 34.026 29.683 34.1705 29.6602C34.1553 29.7967 34.1781 29.9559 34.1173 30.062C33.7826 30.6002 33.4327 31.1157 33.0752 31.6539C33.2577 31.8889 33.4631 31.7903 33.6 31.6236C33.9499 31.1839 34.2694 30.7215 34.5965 30.2667C34.703 30.115 34.779 29.9255 34.9159 29.8118C35.0072 29.736 35.1822 29.7512 35.3267 29.7284C35.3267 29.8573 35.3723 30.0165 35.3191 30.1075C34.9616 30.6987 34.5889 31.2824 34.2085 31.8586C34.1325 31.9798 34.0336 32.086 33.9499 32.1997C33.9727 32.2224 33.988 32.2452 34.0108 32.2755C34.1249 32.23 34.2466 32.1997 34.3531 32.139C34.8475 31.8434 35.2506 31.4568 35.5092 30.9337C35.6766 30.6078 35.8287 30.2818 36.0113 29.9634C36.1101 29.7815 36.2623 29.6072 36.4905 29.736C36.7339 29.8801 36.5665 30.0696 36.4753 30.2212C36.0721 30.9034 35.669 31.5781 35.2354 32.2982C35.456 32.1769 35.6766 32.086 35.8591 31.9571C36.3383 31.6084 36.6426 31.1233 36.886 30.5926C37.0153 30.3197 37.1674 30.0468 37.3576 29.8118C37.4261 29.7284 37.639 29.7588 37.7836 29.736C37.7836 29.8649 37.7836 29.9938 37.776 30.115C37.776 30.1681 37.7151 30.2136 37.6847 30.2591C37.2511 30.9186 36.8175 31.5781 36.384 32.2452C36.6502 32.1618 36.9088 32.0405 37.137 31.8737C37.6543 31.4871 37.9433 30.9337 38.2323 30.3804C38.3616 30.1302 38.5062 29.8876 38.6887 29.6754C38.7496 29.6072 38.9397 29.6451 39.069 29.6299C39.069 29.7436 39.1147 29.8952 39.0614 29.971C38.5898 30.6533 38.0954 31.3203 37.6086 31.995C37.5706 32.0557 37.5249 32.1087 37.4869 32.1694C37.5173 32.1997 37.5402 32.2376 37.5706 32.2679C37.9053 32.0481 38.3084 31.8813 38.5594 31.5932C38.9549 31.1384 39.2516 30.6002 39.5939 30.0923C39.7384 29.8801 39.8753 29.6602 40.0427 29.4783C40.1035 29.4101 40.2556 29.4252 40.3621 29.4101C40.3621 29.5162 40.4078 29.6526 40.3621 29.7284C39.959 30.3728 39.533 31.002 39.1071 31.6311C39.0158 31.7676 38.8789 31.8737 38.7648 31.9874C38.7876 32.0178 38.818 32.0557 38.8409 32.086C39.0995 31.9344 39.3733 31.8131 39.6091 31.6311C40.2252 31.1384 40.5903 30.4713 40.9022 29.7663C40.9859 29.5844 41.1304 29.4176 41.2825 29.2812C41.3434 29.2206 41.4879 29.2585 41.602 29.2509C41.602 29.3494 41.6324 29.4555 41.602 29.5465C41.5563 29.6905 41.4803 29.827 41.3966 29.9559C40.963 30.5926 40.5219 31.2218 40.0503 31.8965C40.2861 31.76 40.5067 31.6539 40.6968 31.5174C41.351 31.0474 41.7237 30.3728 42.0508 29.6602C42.1496 29.4555 42.279 29.2509 42.4311 29.0765C42.4919 29.0007 42.6593 29.0159 42.7734 28.9931C42.7734 29.1068 42.8266 29.2357 42.781 29.3191C42.5984 29.6905 42.4159 30.062 42.1877 30.3955C41.891 30.8352 41.5487 31.237 41.2217 31.6539C41.2369 31.6766 41.2521 31.6994 41.2749 31.7221C41.5411 31.5478 41.8302 31.3962 42.0812 31.1915C42.6669 30.6987 42.9711 30.0241 43.2526 29.3343C43.3362 29.122 43.4808 28.9325 43.6329 28.7581C43.6861 28.6975 43.8383 28.7127 43.9448 28.6899C43.9448 28.7885 43.9828 28.9022 43.9448 28.9856C43.6329 29.7663 43.2526 30.5017 42.6669 31.1157C42.5756 31.2066 42.4843 31.3052 42.4007 31.3962L42.4691 31.4795C42.6897 31.3355 42.9179 31.2066 43.1233 31.0399C43.747 30.5244 44.1121 29.827 44.3859 29.0765C44.4696 28.8491 44.6141 28.6444 44.7663 28.4549C44.8195 28.3943 44.9716 28.417 45.0781 28.4019C45.0781 28.5004 45.1238 28.6141 45.0857 28.6899C44.8043 29.2433 44.5228 29.7967 44.2186 30.3425C44.0817 30.585 43.8915 30.7973 43.7242 31.0323C43.747 31.055 43.7698 31.0778 43.7926 31.1005C43.9904 30.9489 44.211 30.8049 44.3935 30.6381C44.9792 30.0923 45.2987 29.3873 45.5801 28.6596C45.6562 28.4701 45.7703 28.2882 45.8996 28.1214C45.9452 28.0683 46.1126 28.0456 46.181 28.0911C46.2419 28.129 46.2723 28.2654 46.2723 28.3564C46.2723 28.4398 46.2115 28.5307 46.1658 28.6141C45.7779 29.3191 45.3824 30.0165 44.9868 30.7139C45.2607 30.532 45.5954 30.3425 45.7779 30.0544C46.1506 29.4783 46.4473 28.8491 46.7743 28.2427C46.8428 28.1062 46.8884 27.947 46.9949 27.8485C47.0786 27.7651 47.2307 27.7575 47.36 27.7196C47.3753 27.8485 47.4513 28.0001 47.3981 28.0911C47.0178 28.7809 46.6222 29.448 46.2191 30.1302C46.181 30.1984 46.1278 30.2591 46.0746 30.3273C46.105 30.3576 46.1354 30.3804 46.1658 30.4107C46.4625 30.1378 46.8276 29.9104 47.0406 29.592C47.3753 29.0765 47.611 28.4928 47.8925 27.947C47.9838 27.7727 48.0598 27.5832 48.1891 27.4391C48.2652 27.3558 48.4325 27.3633 48.5619 27.3254C48.5619 27.4391 48.5923 27.5756 48.5466 27.6741C48.2196 28.3791 47.8773 29.0765 47.5122 29.8422C47.786 29.592 48.0903 29.4101 48.2576 29.1372C48.5771 28.6065 48.8053 28.0304 49.0791 27.4695C49.1475 27.3254 49.2008 27.1587 49.3073 27.045C49.3757 26.9692 49.5355 26.9767 49.6496 26.9464C49.6724 27.0525 49.7332 27.1814 49.7028 27.2648C49.4898 27.7575 49.254 28.2427 49.0258 28.7278C48.9498 28.887 48.8433 29.0386 48.752 29.1902C49.2616 28.9931 49.6039 28.6293 49.8473 28.182C50.0451 27.8106 50.1896 27.4088 50.357 27.0222C50.4635 26.7721 50.5928 26.5674 50.9427 26.5825C51.0415 27.2951 50.5395 27.7954 50.3037 28.4473C50.8894 28.0911 51.2393 27.6287 51.4371 27.0601C51.5131 26.8403 51.5892 26.6129 51.7261 26.4234C51.7946 26.3324 51.9771 26.3248 52.1141 26.2793C52.1293 26.393 52.1825 26.5295 52.1445 26.628C52 26.9843 51.825 27.333 51.6577 27.6741C51.5968 27.803 51.5208 27.9167 51.4143 28.1062C51.8859 27.8864 52.1445 27.568 52.3346 27.1966C52.4944 26.8858 52.6085 26.5446 52.791 26.2414C52.8595 26.1277 53.0649 26.0064 53.1637 26.0292C53.3995 26.0898 53.2854 26.2945 53.217 26.4309C52.9888 26.9085 52.753 27.3861 52.5172 27.8788C53.0572 27.6741 53.3159 27.242 53.5136 26.7569C53.6125 26.5143 53.6886 26.2642 53.8179 26.0443C53.8635 25.9685 54.0233 25.9534 54.1374 25.9155C54.1602 26.014 54.221 26.1201 54.1982 26.2111C54.1526 26.4006 54.0841 26.5977 53.9928 26.7721C53.8255 27.0904 53.6353 27.3861 53.4224 27.7499C53.9396 27.5756 54.2439 27.2496 54.4568 26.8327C54.5861 26.5825 54.6622 26.3021 54.8067 26.0671C54.8676 25.9761 55.0501 25.9609 55.1794 25.9079C55.2023 26.014 55.2783 26.1353 55.2479 26.2187C55.1414 26.5295 55.0045 26.8251 54.8524 27.1132C54.7459 27.3179 54.609 27.4922 54.4416 27.7499C54.9589 27.5756 55.2707 27.2951 55.4533 26.8782C55.5598 26.6356 55.6282 26.3627 55.7651 26.1277C55.826 26.0216 55.9857 25.9837 56.0998 25.9079C56.1302 26.0292 56.2139 26.1732 56.1683 26.2642C55.9553 26.7645 55.7119 27.2496 55.4685 27.7499C55.8336 27.6438 56.1226 27.3937 56.3128 27.0298C56.4573 26.7493 56.5562 26.4461 56.7007 26.1656C56.7388 26.0898 56.8681 26.0519 56.9593 25.9988C57.0126 26.0898 57.1191 26.2035 57.1039 26.2717C57.0126 26.5825 56.8833 26.8858 56.754 27.189C56.6703 27.3709 56.5562 27.5301 56.4573 27.7045C56.4953 27.7348 56.541 27.7651 56.579 27.803C56.8072 27.568 57.0658 27.3482 57.256 27.0904C57.4081 26.8858 57.4614 26.6129 57.5983 26.4006C57.6591 26.3096 57.8341 26.2945 57.9634 26.2414C58.0014 26.3703 58.0547 26.4916 58.0623 26.6204C58.0623 26.6735 58.0014 26.7417 57.9634 26.8024C57.7048 27.1966 57.4385 27.5907 57.1799 27.9774C57.2027 28.0077 57.218 28.0304 57.2408 28.0607C57.4918 27.8864 57.7808 27.7424 57.9786 27.5149C58.1992 27.2648 58.3133 26.9312 58.5034 26.6508C58.5643 26.5598 58.7164 26.5295 58.8305 26.4688C58.8762 26.5825 58.9826 26.7114 58.9598 26.81C58.9294 26.9767 58.8381 27.1359 58.7392 27.2875C58.511 27.6362 58.2752 27.9774 58.0014 28.3791C58.6632 28.1365 59.0511 27.6817 59.3782 27.1587C59.4847 26.9919 59.5075 26.6811 59.8041 26.8327C60.1084 26.9843 59.9106 27.2117 59.8194 27.4012C59.7433 27.5604 59.652 27.712 59.5455 27.8561C59.3401 28.1365 59.1196 28.4019 58.8914 28.6823C58.9446 28.6975 58.9674 28.7127 58.9903 28.7127C59.0359 28.6975 59.0739 28.6823 59.1196 28.6596C59.7053 28.3412 60.2073 27.9243 60.6104 27.3861C60.6637 27.3179 60.7778 27.2951 60.869 27.2496C60.8995 27.3558 60.9755 27.477 60.9527 27.5528C60.8614 27.7954 60.7473 28.0304 60.618 28.2427C60.4659 28.4928 60.2833 28.7202 60.078 29.0159C60.6637 28.7581 61.0136 28.4019 61.2646 27.8712C61.3102 27.7803 61.4319 27.7272 61.5156 27.659C61.5536 27.7878 61.6449 27.9167 61.6221 28.038C61.5916 28.2275 61.4852 28.4094 61.4167 28.5914C61.4471 28.6065 61.4776 28.6217 61.508 28.6444C61.6373 28.4549 61.759 28.2578 61.9111 28.0911C61.972 28.0304 62.1089 28.038 62.2078 28.0153C62.2154 28.1062 62.2458 28.2048 62.2306 28.2882C62.1926 28.4398 62.1241 28.5838 62.0709 28.7354L62.1469 28.7657C62.3523 28.5762 62.5653 28.3791 62.7706 28.1896C62.8087 28.2199 62.8467 28.2502 62.8771 28.2806C62.6718 28.7051 62.4664 29.122 62.261 29.5541C63.1966 29.1599 64.3832 27.2799 64.0942 26.3475C63.9877 26.6659 63.8888 26.9464 63.7975 27.2193C63.7823 27.2193 63.7595 27.2117 63.7443 27.2041C63.7214 26.9009 63.6986 26.5901 63.6758 26.2869C63.6454 26.2869 63.615 26.2869 63.5769 26.2869C63.478 26.5143 63.3792 26.7342 63.2651 27.007C63.2042 26.6811 63.1586 26.4234 63.1053 26.158C63.0749 26.158 63.0521 26.158 63.0217 26.158C62.9684 26.3627 62.9152 26.5674 62.8543 26.7721C62.763 26.5067 62.687 26.2566 62.6033 26.0064C62.5805 26.014 62.5501 26.0216 62.5272 26.0292C62.4892 26.2338 62.4512 26.4385 62.4131 26.6432C62.3143 26.5674 62.3143 26.4992 62.2914 26.4385C62.2306 26.2793 62.1545 26.1277 62.0861 25.9685C62.0328 26.1277 61.9872 26.2793 61.9339 26.4385C61.9339 26.4537 61.9035 26.4537 61.8579 26.484C61.8122 26.3172 61.7894 26.158 61.7286 26.0064C61.6981 25.923 61.5993 25.87 61.5384 25.8018C61.4928 25.8776 61.4243 25.9382 61.4015 26.0216C61.3711 26.1201 61.3787 26.2263 61.3711 26.4082C61.2113 26.0747 61.0972 25.8321 60.9755 25.5819C60.9375 25.5971 60.8995 25.6047 60.8614 25.6198C60.8158 25.7714 60.7778 25.923 60.7169 26.1353C60.5876 25.7866 60.6485 25.4227 60.2757 25.2711C60.2149 25.5137 60.1616 25.7335 60.1084 25.9458C60.0095 25.7487 59.9867 25.5592 59.9182 25.3848C59.8954 25.3166 59.7889 25.256 59.7129 25.2408C59.6748 25.2408 59.5912 25.3318 59.5607 25.4C59.5075 25.5137 59.4771 25.6426 59.4238 25.8397C59.363 25.7108 59.3325 25.6653 59.3173 25.6122C59.2489 25.4152 59.2032 25.2029 59.112 25.0134C59.0739 24.9376 58.9598 24.8921 58.8762 24.839C58.8305 24.9148 58.7773 24.9831 58.7468 25.0664C58.6936 25.1953 58.648 25.3393 58.6023 25.4682C58.5719 25.4682 58.5339 25.4682 58.5034 25.4682C58.4578 25.2787 58.4426 25.0816 58.3589 24.9148C58.2981 24.786 58.1459 24.7026 58.0318 24.604C57.9634 24.7026 57.8873 24.8011 57.8341 24.9073C57.7884 24.9982 57.758 25.1119 57.6972 25.2939C57.5374 24.8315 57.4157 24.46 57.2864 24.0886C57.256 24.0886 57.2256 24.0886 57.1951 24.0886C57.1039 24.316 57.0126 24.551 56.8985 24.8239C56.7996 24.4752 56.7083 24.1795 56.6247 23.8839C56.5942 23.8839 56.5714 23.8991 56.541 23.8991C56.5258 24.0658 56.5182 24.2326 56.503 24.3994H56.4573C56.328 24.0507 56.1987 23.6944 56.0694 23.3457C56.0542 23.3533 56.0314 23.3608 56.0161 23.3684C55.9629 23.7929 55.9173 24.2174 55.864 24.6419C55.8336 24.6419 55.7956 24.6419 55.7651 24.6419C55.6662 24.0886 55.6054 23.52 55.2099 22.9742C55.1262 23.5125 55.0501 23.9673 54.9817 24.4297C54.7002 23.6716 54.609 22.8757 54.2895 22.1555C54.2438 22.1707 54.2058 22.1783 54.1602 22.1934C54.2286 22.4815 54.2895 22.7696 54.3579 23.0349C54.2743 23.3912 54.1906 23.755 54.0841 24.1871C53.8635 23.6337 53.9852 23.0576 53.5517 22.5497C53.4604 23.0425 53.3843 23.4442 53.293 23.8991C53.1029 23.376 53.1485 22.8226 52.6921 22.383C52.6313 22.8454 52.5857 23.2471 52.5324 23.6413C52.502 23.6413 52.4639 23.6413 52.4335 23.6413C52.3727 23.3078 52.327 22.9742 52.251 22.6483C52.1825 22.3223 52.0912 22.0039 52.0076 21.6856C51.9771 21.6856 51.9467 21.7007 51.9239 21.7083C51.8554 22.2617 51.787 22.815 51.7185 23.3684C51.4599 22.7468 51.5436 22.0646 51.1328 21.4354C51.0644 22.0722 50.9959 22.618 50.9351 23.1713C50.897 23.1713 50.8666 23.1713 50.8286 23.1713C50.7601 22.815 50.6993 22.4588 50.608 22.1101C50.5776 21.9812 50.4635 21.8675 50.395 21.7462C50.3265 21.8599 50.2277 21.9736 50.1896 22.1025C50.1212 22.3602 50.0984 22.6331 50.0527 22.8909C49.9614 22.8302 49.9462 22.7771 49.931 22.7241C49.8397 22.2768 49.7637 21.822 49.6572 21.3823C49.6344 21.2914 49.5127 21.2307 49.4366 21.1549C49.3834 21.2459 49.3073 21.3293 49.2921 21.4202C49.2464 21.7614 49.2236 22.1025 49.1856 22.4436C49.0258 22.1252 48.9574 21.7993 48.8585 21.4809C48.8205 21.3596 48.7064 21.2535 48.6227 21.1398C48.5619 21.2535 48.463 21.3596 48.4402 21.4809C48.3869 21.731 48.3717 21.9964 48.3413 22.2541C48.1663 21.7765 48.0826 21.3065 47.9762 20.8441C47.9533 20.7456 47.8545 20.6622 47.7936 20.5712C47.7251 20.6698 47.6111 20.7532 47.5882 20.8593C47.5274 21.0715 47.5198 21.299 47.4817 21.5188C47.4589 21.6401 47.4209 21.7614 47.3905 21.8826C47.2535 21.443 47.1851 21.0109 47.0786 20.5864C47.0254 20.3817 46.8808 20.1998 46.782 20.0027C46.6983 20.2149 46.5918 20.4272 46.5309 20.647C46.4777 20.8441 46.4625 21.0564 46.4321 21.2686L46.3788 21.2459C46.2191 20.6546 46.0593 20.0558 45.8768 19.3811C45.2987 19.7904 45.6638 20.3893 45.3748 20.8441C45.3291 20.6698 45.2911 20.5409 45.2607 20.412C45.1314 19.889 45.0097 19.3583 44.8651 18.8429C44.8347 18.7292 44.713 18.6458 44.6293 18.5472C44.5913 18.6685 44.5228 18.7898 44.5228 18.9111C44.5076 19.4114 44.5228 19.9193 44.5228 20.4272H44.4088C44.2186 19.798 44.036 19.1613 43.8307 18.4714C43.3058 18.9566 43.6405 19.5479 43.3895 20.0709C43.2221 19.5175 43.07 19.0096 42.9103 18.5169C42.8875 18.4411 42.8114 18.3805 42.7582 18.3122C42.6821 18.3805 42.5756 18.4259 42.5376 18.5093C42.4919 18.6079 42.5071 18.7367 42.5071 18.858C42.5071 19.1385 42.5071 19.419 42.5071 19.6995C42.4767 19.6995 42.4387 19.6995 42.4083 19.707C42.1877 18.9793 41.9671 18.2592 41.7313 17.4632C41.2749 18.0924 41.602 18.7671 41.3662 19.4342C41.2977 19.2219 41.2673 19.1006 41.2293 18.9793C41.0847 18.5472 40.9402 18.1151 40.7805 17.6831C40.7577 17.6148 40.6588 17.5694 40.5979 17.5087C40.5447 17.5769 40.461 17.6376 40.4382 17.7134C40.4078 17.8347 40.423 17.9711 40.4078 18.1C40.385 18.4259 40.3545 18.7519 40.3241 19.1613C40.1035 18.4942 39.9134 17.9256 39.7156 17.3647C39.6852 17.2813 39.5939 17.2282 39.5254 17.16C39.4646 17.2358 39.3733 17.3116 39.3505 17.395C39.3201 17.5011 39.3353 17.63 39.3353 17.7437C39.3353 18.0166 39.3353 18.2895 39.3353 18.5624C39.0919 18.1151 38.9245 17.6527 38.7496 17.1979C38.7115 17.1069 38.6203 17.0387 38.5518 16.9553C38.491 17.0539 38.3921 17.1448 38.3693 17.251C38.3388 17.395 38.3616 17.5542 38.354 17.7058C38.3464 17.8802 38.3312 18.0545 38.316 18.2289C38.0802 17.8271 37.9357 17.4177 37.7683 17.0236C37.7227 16.9174 37.6086 16.8492 37.5326 16.7582C37.4793 16.8719 37.388 16.9857 37.3804 17.1069C37.3576 17.4102 37.3804 17.7058 37.3804 18.009H37.2967C37.0838 17.4784 36.8632 16.9402 36.6274 16.3489C36.171 16.8492 36.597 17.395 36.3612 17.9105C36.1938 17.5466 36.0645 17.2358 35.9124 16.9402C35.8363 16.7886 35.7146 16.6597 35.6081 16.5157C35.5701 16.7128 35.5092 16.9023 35.494 17.0994C35.4864 17.3192 35.5245 17.539 35.5397 17.7664C35.5092 17.7664 35.4788 17.774 35.4484 17.7816C35.3799 17.6527 35.3039 17.5163 35.243 17.3874C35.1365 17.1524 35.0529 16.9098 34.9312 16.6824C34.8931 16.6142 34.7714 16.5839 34.6954 16.5308C34.6573 16.6066 34.5889 16.69 34.5889 16.7658C34.5889 16.9553 34.6269 17.1373 34.6421 17.3268C34.6497 17.4556 34.6421 17.5769 34.6421 17.7058C34.6041 17.7058 34.5737 17.7134 34.5356 17.721C34.3835 17.395 34.239 17.0615 34.0716 16.7431C34.0336 16.6673 33.9195 16.6294 33.8434 16.5763C33.813 16.6597 33.7598 16.7355 33.7522 16.8189C33.7446 17.1069 33.7522 17.3874 33.7522 17.6755C33.7217 17.6755 33.6837 17.6906 33.6533 17.6906C33.4935 17.3571 33.349 17.016 33.1741 16.69C33.1284 16.6066 33.0143 16.5536 32.9307 16.4853C32.8926 16.5839 32.8394 16.6824 32.8318 16.781C32.8166 17.0463 32.8318 17.3192 32.8318 17.5845C32.6492 17.3571 32.558 17.1145 32.4362 16.8947C32.345 16.7355 32.2005 16.6066 32.0864 16.4626C32.0483 16.637 31.9951 16.8113 31.9723 16.9932C31.9494 17.1752 31.9723 17.3647 31.9723 17.5542C31.7517 17.2131 31.6072 16.8719 31.4474 16.5308C31.417 16.4626 31.3181 16.4323 31.2496 16.3868C31.2192 16.455 31.1584 16.5232 31.1508 16.5915C31.1432 16.8644 31.1508 17.1448 31.1508 17.4935C30.8389 17.0994 30.8693 16.5384 30.3293 16.3565C30.3673 16.7128 30.3977 17.0387 30.4358 17.4405C30.1847 17.0311 29.9642 16.6824 29.7436 16.3262C29.7055 16.3413 29.6751 16.3641 29.6371 16.3792C29.6295 16.6066 29.6143 16.8416 29.5991 17.1676C29.4165 16.8719 29.2948 16.6673 29.1731 16.4702V16.455L29.1503 16.4626ZM10.583 18.0697C10.6667 18.1455 10.7504 18.2137 10.834 18.2895C11.4882 18.858 12.1804 19.3962 12.7965 20.0027C13.5723 20.7607 14.2797 21.5794 14.5155 22.6938C14.797 24.0507 14.3026 25.1498 13.116 25.5668C12.6596 25.726 12.1119 25.7942 11.6327 25.7335C9.89083 25.4985 8.23263 24.9073 6.59725 24.2705C6.55162 24.2478 6.52119 24.1871 6.44513 24.0961C7.73061 24.3842 8.95524 24.6647 10.1799 24.9376C10.1951 24.8997 10.2103 24.8618 10.2255 24.8239C10.0658 24.6192 9.89083 24.4373 9.76152 24.2174C9.4953 23.7626 9.09977 23.5504 8.58253 23.5125C8.27827 23.4897 7.98162 23.3987 7.68497 23.3305C6.34624 23.0046 5.02273 22.6559 3.67639 22.3602C2.9766 22.2086 2.2692 22.2465 1.59984 22.5346C1.50096 22.5725 1.37165 22.7923 1.40207 22.8529C1.76718 23.5504 2.37569 23.9749 3.06788 24.2857C2.72559 23.9294 2.36048 23.6034 2.01819 23.2471C1.92692 23.1486 1.91931 22.9667 1.86606 22.8226C2.01819 22.7847 2.19314 22.671 2.31484 22.7165C2.83968 22.8984 3.39495 23.0652 3.86655 23.3533C6.20172 24.7784 8.67381 25.8397 11.4045 26.1505C13.0019 26.3324 14.4851 25.9155 15.801 24.9679C15.8999 24.8921 16.0292 24.8542 16.1509 24.8011L16.0292 24.6647C15.6869 24.4903 15.337 24.3084 14.9947 24.1341C15.01 24.0961 15.0252 24.0658 15.0328 24.0279C15.1849 24.0582 15.3446 24.081 15.4892 24.1265C16.3943 24.3842 17.2919 24.6723 18.2046 24.8921C19.4369 25.1953 20.6919 25.3545 21.9394 25.0361C24.1681 24.4676 25.6741 23.0349 26.663 21.0109C27.0813 20.1619 27.3704 19.275 27.34 18.3047C27.3019 17.1221 26.7543 16.1442 26.0697 15.227C25.7426 14.7873 25.4079 14.3401 25.0808 13.9004C25.1113 13.8701 25.1341 13.8398 25.1645 13.8094C25.4536 14.0368 25.7578 14.2567 26.0316 14.4993C27.3476 15.6591 28.1538 17.069 28.0626 18.8808C27.8724 22.4436 25.1189 25.3848 21.5667 25.779C20.3877 25.9079 19.1935 25.923 18.0145 25.9988C17.6874 26.0216 17.3603 26.0822 17.0409 26.1277V26.2414C18.3263 27.0677 19.6955 27.5528 21.2624 27.2345C22.2665 27.0298 23.2021 26.6887 23.9095 25.8776C24.13 25.6198 24.4267 25.3924 24.7386 25.256C26.5641 24.4145 27.6822 23.0121 28.1614 21.0791C28.1767 21.0185 28.2223 20.9654 28.2527 20.9123C28.2831 20.9199 28.3136 20.9275 28.3516 20.9427C28.2071 21.5794 28.1082 22.2313 27.918 22.8529C27.4921 24.2781 26.7695 25.5743 26.0393 26.863C25.5981 27.6438 24.9135 28.182 24.092 28.5383C23.8714 28.6369 23.6432 28.7051 23.4226 28.7885C23.4303 28.8188 23.4379 28.8491 23.4455 28.8794C23.8106 28.8036 24.1833 28.7581 24.5332 28.652C25.5829 28.3336 26.2674 27.5907 26.8151 26.6659C28.2679 24.1947 29.059 21.5794 28.5874 18.6837C28.2984 16.9099 27.6062 15.3483 26.1229 14.2415C25.446 13.7412 24.7233 13.2864 24.0083 12.8391C23.841 12.733 23.6128 12.6951 23.4074 12.6799C22.3501 12.6117 21.3233 12.7557 20.3116 13.059C19.9617 13.1651 19.6194 13.2712 19.2695 13.3773C20.0378 12.7254 20.9734 12.4146 21.8785 12.0508C21.7568 12.0356 21.6427 12.0508 21.5287 12.0659C20.4638 12.2554 19.4749 12.6572 18.5317 13.1803C17.8928 13.529 17.2462 13.7943 16.4628 13.6654C16.8203 13.9535 17.1854 14.2491 17.5429 14.5372L17.5125 14.5902C17.1397 14.3931 16.7746 14.196 16.4324 14.0065V15.75C16.5921 15.5529 16.7518 15.3634 16.9116 15.1663L16.9952 15.2118C16.7822 15.6439 16.5693 16.076 16.3259 16.5839C16.6986 16.2731 17.0104 16.0078 17.3223 15.7425C16.98 16.9629 16.0596 17.5163 14.9491 17.8498C13.907 18.1682 12.8649 18.1606 12.4238 17.6831C13.7777 17.8574 14.6601 17.5466 15.1697 16.6824C15.5044 16.1139 15.5576 15.5302 15.2305 14.9313C15.3066 15.4544 15.2762 15.9623 14.9947 16.4247C14.2873 17.5997 12.8573 17.8271 11.6555 16.9553C11.549 16.8795 11.4425 16.8113 11.3284 16.7431C11.3132 16.7658 11.2904 16.7886 11.2752 16.8113C11.3969 16.9932 11.5186 17.1752 11.6327 17.3495C11.2676 17.6452 11.7468 17.7285 11.7696 17.9635C10.3624 17.2586 9.04652 16.3641 7.43396 16.22C7.52524 16.2807 7.62412 16.3034 7.7154 16.3413C8.5521 16.6521 9.42684 16.8795 10.2103 17.2889C11.5871 18.0014 12.9106 18.8126 14.2493 19.5933C14.7742 19.9041 15.2001 20.3211 15.512 20.8517C15.7782 21.2989 15.9151 21.7841 15.8543 22.4057C14.5916 20.2832 12.5227 19.2598 10.5906 18.0772L10.583 18.0697ZM69.1981 16.9629C69.1752 16.9174 69.16 16.8719 69.1372 16.8265C68.2777 17.1903 67.3725 17.4784 66.5662 17.9408C65.2884 18.6685 64.0942 19.5251 62.8391 20.2907C62.3827 20.5712 61.8959 20.8744 61.3787 20.973C59.2032 21.3823 57.1571 21.064 55.3924 19.6312C54.8752 19.2067 54.3808 18.7519 53.9092 18.2743C52.3118 16.6597 50.5699 15.2421 48.6075 14.0975C45.0705 12.0432 41.2369 10.8151 37.2359 10.0647C36.5133 9.92823 35.7831 9.8221 35.0529 9.70081C34.9996 9.69323 34.9388 9.71597 34.8855 9.71597C34.7562 9.71597 34.6193 9.73113 34.49 9.71597C34.239 9.69323 33.9575 9.56436 33.7598 9.64017C33.5924 9.70839 33.5164 9.71597 33.3718 9.64017C33.2654 9.57952 33.0676 9.5113 33.0143 9.55678C32.7177 9.8221 32.4667 9.55678 32.1928 9.51888C32.1244 9.5113 32.0407 9.5113 31.9875 9.54162C31.668 9.71597 31.379 9.63259 31.0899 9.4734C31.0595 9.45824 31.0215 9.45824 30.991 9.45824C30.953 9.54162 30.915 9.61743 30.8769 9.68565C30.6944 9.62501 30.5423 9.53404 30.3825 9.53404C30.025 9.53404 29.6599 9.57952 29.2416 9.60985C29.0286 9.90548 28.6939 9.5113 28.4049 9.61742C28.3896 9.68565 28.3744 9.76146 28.3592 9.83726C28.0626 9.83726 27.7583 9.37485 27.5301 9.8979C27.2563 9.85242 26.9824 9.80694 26.6858 9.76145V10.0419C26.3587 9.98129 26.0469 9.92823 25.7122 9.87516C25.8339 10.2163 25.697 10.2542 25.4536 10.1784C25.2634 10.1177 25.0732 10.0647 24.8755 10.0192C24.845 10.0192 24.8146 10.0344 24.7766 10.0419C24.8146 10.1405 24.8527 10.2239 24.9135 10.3831C24.5712 10.3452 24.2822 10.3148 23.9855 10.2769C23.9779 10.3755 23.9703 10.4589 23.9627 10.5726C23.7421 10.5422 23.552 10.5195 23.3846 10.5043C23.2021 11.0122 22.5935 10.7545 22.3273 11.1411C23.7573 11.1335 25.1569 11.1108 26.1229 12.3995C26.1457 12.3767 26.161 12.354 26.1838 12.3312C25.9404 11.8916 25.697 11.4443 25.4536 11.0047L25.522 10.9288C25.948 11.3155 26.3663 11.7021 26.7923 12.0962C26.8151 12.0962 26.8303 12.0811 26.8531 12.0811C26.6326 11.6717 26.412 11.27 26.1686 10.8227C26.8455 11.0805 27.1574 11.649 27.5377 12.1569C27.5605 12.1417 27.591 12.1266 27.6138 12.1114C27.4312 11.649 27.2487 11.1942 27.0737 10.7318C27.1118 10.709 27.1422 10.6863 27.1802 10.6635C27.5529 11.1259 27.9333 11.5808 28.306 12.0432C28.3212 12.0432 28.3364 12.028 28.344 12.028C28.1767 11.5732 28.0093 11.1184 27.8116 10.5953C28.4581 10.9819 28.7547 11.558 29.1275 12.0887C28.9601 11.5959 28.7852 11.1108 28.6026 10.5801C29.2416 10.8 29.4165 11.3761 29.8044 11.7854C29.6751 11.3685 29.5458 10.944 29.4013 10.4892C30.0098 10.8 30.2228 11.3761 30.5423 11.8688C30.5651 11.8537 30.5955 11.8385 30.6183 11.8309C30.4814 11.3913 30.3445 10.9516 30.2076 10.5119C30.238 10.4892 30.2684 10.4664 30.3065 10.4513C30.6335 10.8834 30.953 11.3079 31.3333 11.8158C31.2192 11.323 31.1203 10.9061 31.0291 10.4892C31.0595 10.474 31.0899 10.4589 31.1203 10.4513C31.4018 10.8758 31.6908 11.3003 32.0255 11.8082C31.9342 11.323 31.8658 10.9364 31.7973 10.5498C31.8277 10.5347 31.8582 10.5195 31.8962 10.5043C32.1776 10.9592 32.4591 11.414 32.7405 11.8688C32.7633 11.8612 32.7785 11.8461 32.8014 11.8385C32.6797 11.4064 32.5503 10.9743 32.4286 10.5422C32.4591 10.5195 32.4971 10.5043 32.5275 10.4816C32.8394 10.9061 33.1513 11.3306 33.4631 11.7551C33.4859 11.7475 33.5011 11.7324 33.524 11.7248C33.4023 11.3458 33.273 10.9668 33.136 10.5422C33.7217 10.7772 33.8587 11.3382 34.2238 11.7172C34.1401 11.3382 34.0564 10.9592 33.9727 10.5801C34.0108 10.565 34.0412 10.5422 34.0792 10.5271C34.3911 10.9592 34.703 11.3913 35.0376 11.8612C34.9388 11.4292 34.8475 11.0426 34.741 10.5801C35.3495 10.944 35.4332 11.558 35.7831 12.0204C35.6918 11.6111 35.6081 11.2017 35.5016 10.7318C36.0645 11.0501 36.1178 11.6642 36.5209 12.0962C36.4372 11.6263 36.3612 11.2169 36.2851 10.8151C36.3155 10.8 36.3536 10.7848 36.384 10.7697C36.673 11.2472 36.9621 11.7248 37.2587 12.1948C37.2739 12.1872 37.2967 12.1796 37.312 12.1645C37.2131 11.7627 37.1066 11.3534 37.0077 10.9516C37.0533 10.9364 37.0914 10.9137 37.137 10.8985C37.4185 11.3155 37.7075 11.7324 37.9889 12.1569C38.0041 12.1569 38.0118 12.1417 38.027 12.1417C37.9433 11.7854 37.8596 11.4216 37.776 11.0653C37.814 11.0501 37.852 11.035 37.8901 11.0198C38.1563 11.3609 38.4225 11.6945 38.6887 12.0356C38.7039 12.028 38.7192 12.0129 38.7344 12.0053C38.6811 11.7248 38.6279 11.4519 38.5746 11.179C38.6127 11.1563 38.6507 11.1411 38.6887 11.1184C38.9778 11.505 39.2668 11.8916 39.6167 12.3616C39.5102 11.9371 39.4265 11.6111 39.3353 11.2776C39.3733 11.2548 39.4113 11.2321 39.4494 11.2093C39.7384 11.5884 40.0275 11.9674 40.3393 12.3767C40.2861 12.0508 40.248 11.7627 40.2024 11.4671C40.2404 11.4519 40.2709 11.4367 40.3089 11.4216C40.5827 11.8233 40.8566 12.2251 41.1304 12.6269C41.1456 12.6269 41.1608 12.6117 41.1684 12.6041C41.1 12.2858 41.0315 11.9598 40.963 11.6414C40.9935 11.6263 41.0315 11.6111 41.0619 11.5959C41.3282 11.9446 41.5868 12.2933 41.9138 12.7178C41.815 12.354 41.7465 12.0811 41.6704 11.8082C41.7085 11.7854 41.7389 11.7703 41.7769 11.7475C42.0279 12.0356 42.279 12.3161 42.5604 12.6496C42.5148 12.3843 42.4843 12.1796 42.4539 11.9674C42.4919 11.9522 42.53 11.9295 42.5756 11.9143C42.819 12.2782 43.0624 12.642 43.3134 13.0135C43.3286 13.0059 43.3438 12.9983 43.3667 12.9907C43.3134 12.7103 43.2602 12.4374 43.1993 12.1569C43.2298 12.1417 43.2678 12.1266 43.2982 12.1038C43.5568 12.4601 43.8231 12.824 44.1273 13.2485C44.0893 12.9301 44.0589 12.6875 44.0284 12.4449C44.0589 12.4298 44.0969 12.4146 44.1273 12.407C44.3859 12.7861 44.6522 13.1575 44.964 13.6048C44.9184 13.2712 44.888 13.0135 44.8575 12.7633C44.888 12.7482 44.926 12.733 44.9564 12.7178C45.1846 13.0286 45.4128 13.347 45.6334 13.6578C45.6562 13.6427 45.6714 13.6275 45.6942 13.6123C45.6638 13.4304 45.6258 13.2485 45.5953 13.0665C45.6258 13.0514 45.6562 13.0362 45.6942 13.0211C45.9757 13.4001 46.2647 13.7715 46.5994 14.2264C46.5309 13.908 46.4777 13.673 46.4244 13.438C46.4549 13.4228 46.4853 13.4077 46.5157 13.3925C46.7972 13.7336 47.0862 14.0823 47.3676 14.4235C47.3829 14.4159 47.3981 14.4083 47.4133 14.4007C47.3448 14.1885 47.2764 13.9686 47.2079 13.7564L47.284 13.7185C47.5806 14.0596 47.8697 14.4007 48.2272 14.8176C48.1587 14.5523 48.1207 14.3855 48.0826 14.2188C48.1055 14.2036 48.1359 14.1885 48.1587 14.1657C48.4478 14.5447 48.7292 14.9238 49.0715 15.371C49.0106 15.1057 48.965 14.9162 48.9194 14.7343C48.9498 14.7191 48.9726 14.7039 49.003 14.6888C49.2845 15.0375 49.5583 15.3938 49.8778 15.7955C49.8321 15.5757 49.8017 15.4241 49.7713 15.2649C49.8017 15.2497 49.8245 15.227 49.8549 15.2118C50.1364 15.5605 50.4254 15.9092 50.7525 16.3034C50.7221 16.1518 50.7069 16.0684 50.6917 15.985C50.7221 15.9623 50.7525 15.9471 50.7829 15.9244C51.0263 16.2276 51.2697 16.5232 51.5436 16.8568V16.4171C51.8402 16.7658 52.076 17.0463 52.3346 17.3495C52.3575 17.2586 52.3727 17.1903 52.3879 17.1524C52.7758 17.5163 53.1637 17.8726 53.5441 18.244C54.5861 19.2446 55.651 20.2301 56.9593 20.8896C58.9674 21.913 60.9527 21.9205 62.9076 20.7607C64.1626 20.0178 65.4177 19.275 66.6651 18.5245C67.5094 18.0166 68.3461 17.5011 69.1905 16.9857L69.1981 16.9629ZM35.958 5.64525C35.958 5.64525 35.9808 5.66799 35.9961 5.67558C36.4753 5.01607 36.9545 4.35657 37.4413 3.68949C37.1522 3.71223 36.8708 3.8032 36.635 3.73497C36.3459 3.65159 36.1482 3.68949 35.9428 3.88658C35.8972 3.93206 35.7755 3.95481 35.7298 3.92448C35.6766 3.88658 35.6462 3.78045 35.6614 3.71223C35.6842 3.59094 35.7374 3.46207 35.8059 3.35595C35.9884 3.06789 36.1938 2.78741 36.384 2.50693C36.3612 2.48419 36.3459 2.45387 36.3231 2.43113C35.8667 2.71919 35.4104 2.99966 34.9464 3.28772C34.9464 3.27256 34.9464 3.22708 34.9235 3.18918C34.8475 3.03757 34.7714 2.88596 34.6877 2.73435C34.5584 2.84806 34.3759 2.93144 34.2998 3.07547C33.5011 4.50818 32.8926 6.0167 32.4439 7.58586C32.4134 7.69198 32.4439 7.81327 32.4439 7.93456C32.5427 7.85875 32.672 7.79811 32.7329 7.69956C32.9002 7.41151 33.0372 7.10071 33.1893 6.80507C33.2197 7.03248 33.1741 7.22199 33.1513 7.41909C33.1284 7.6086 33.1132 7.79811 33.098 7.98762C33.1284 7.98762 33.1589 7.9952 33.1893 8.00278C33.7217 6.84297 34.2238 5.66041 35.1746 4.66737C35.1365 4.86446 35.1061 4.99333 35.0681 5.198C35.2963 5.00849 35.4636 4.87962 35.6766 4.70527C35.6614 4.87962 35.6538 4.97059 35.6309 5.18284C35.9504 4.91753 36.1862 4.71285 36.422 4.50818C36.4372 4.51576 36.4524 4.53092 36.4677 4.5385C36.3003 4.90995 36.133 5.27381 35.9656 5.64525H35.958ZM32.3222 5.23591C32.3222 5.23591 32.3678 5.25865 32.3906 5.26623C32.9535 4.1898 33.524 3.10579 34.0944 2.0142C33.5696 2.2871 33.1132 2.54484 32.6416 2.75709C32.094 3.00725 32.0864 2.99208 31.7745 2.45387C31.5463 2.77983 31.3257 3.08305 31.0671 3.43175C31.0443 3.31805 31.0291 3.27256 31.0291 3.22708C31.0215 3.00725 30.953 2.81773 30.6944 2.82531C30.4282 2.82531 30.4358 3.04515 30.4053 3.22708C30.2228 4.22012 30.0326 5.21317 29.8349 6.19863C29.7436 6.64588 29.6295 7.09312 29.5382 7.54037C29.523 7.60102 29.5838 7.67682 29.6067 7.74505C29.6751 7.70714 29.7588 7.69198 29.7968 7.63134C29.8577 7.53279 29.8881 7.41909 29.9337 7.30538C30.025 7.09313 30.1163 6.88087 30.2076 6.6762C30.2228 6.94152 30.1695 7.18409 30.1467 7.42667C30.1391 7.52521 30.1848 7.63134 30.2076 7.73747C30.2684 7.65408 30.3521 7.58586 30.3901 7.49489C30.8161 6.52459 31.2116 5.55429 31.6604 4.59157C31.7973 4.28835 32.0483 4.03819 32.2385 3.76529C32.2613 3.78045 32.2765 3.79562 32.2993 3.81078L32.2005 4.30351C32.2005 4.30351 32.2537 4.31867 32.2841 4.32625C32.4819 4.09883 32.6873 3.87142 32.885 3.64401C32.9002 3.65917 32.9231 3.66675 32.9383 3.68191C32.7329 4.19738 32.5199 4.71285 32.3145 5.22833L32.3222 5.23591ZM11.6403 27.2724C11.6175 27.333 11.5947 27.3937 11.5719 27.4467C12.2336 27.7803 12.8725 28.1972 13.5723 28.4398C15.7782 29.2054 18.0525 29.357 20.3497 28.9098C21.6199 28.6672 22.875 28.3412 23.9855 27.6211C24.7766 27.1056 25.3623 26.4082 25.7578 25.5516C25.6361 25.6047 25.5372 25.6729 25.446 25.7563C23.7573 27.2724 21.7645 28.1593 19.5662 28.6369C17.7863 29.0235 16.0444 28.9856 14.3634 28.1896C13.8005 27.9243 13.2148 27.7045 12.6291 27.4922C12.3173 27.3785 11.975 27.3406 11.6479 27.2648L11.6403 27.2724ZM38.8789 3.65917C38.2856 3.8411 37.8672 4.06851 37.5934 4.51576C37.4413 4.75834 37.2891 4.99333 37.1522 5.23591C36.635 6.18347 36.1178 7.12345 35.6081 8.07859C35.5701 8.15439 35.6081 8.28326 35.6233 8.38939C35.6994 8.33632 35.8059 8.29842 35.8591 8.22262C36.0037 8.01794 36.1254 7.79811 36.2623 7.58586C36.2851 7.59344 36.3079 7.6086 36.3231 7.61618C36.2699 7.87391 36.209 8.13165 36.1558 8.38181C36.1862 8.38939 36.2242 8.40455 36.2547 8.41213C36.5285 7.98004 36.7947 7.54037 37.0762 7.11587C37.6466 6.25927 37.7836 6.1304 38.1182 6.0167C38.0802 6.12282 38.0498 6.23653 37.9813 6.44878C38.3312 6.20621 38.5898 6.03186 38.9169 5.80444C38.7115 6.16073 38.5518 6.42604 38.3997 6.69136C38.4149 6.69894 38.4377 6.7141 38.4529 6.72168C38.9549 6.19863 39.457 5.68316 39.997 5.1222C39.3581 5.09188 38.8028 5.06156 38.1791 5.03123C38.1106 4.53092 38.5366 4.16706 38.8789 3.65917ZM8.74226 23.1941C8.3087 22.4284 8.04247 22.1631 7.46439 21.9888C6.35385 21.6552 5.24331 21.3217 4.11756 21.0185C3.37974 20.8214 2.6191 20.7077 1.85085 20.8365C1.52377 20.8896 1.27276 21.0488 1.12824 21.443C1.9041 21.0412 2.64192 21.1928 3.37213 21.3823C4.02629 21.5567 4.66523 21.7917 5.31177 22.0115C6.43752 22.3981 7.56327 22.7847 8.73466 23.1865L8.74226 23.1941ZM38.9854 9.03373C38.9854 9.03373 39.0538 9.04889 39.0843 9.05647C39.7536 8.38939 40.1263 7.31296 41.389 7.40393C41.2673 7.58586 41.1608 7.75263 41.0619 7.91182C41.0771 7.9194 41.0924 7.93456 41.1076 7.94214C41.4499 7.63892 41.7845 7.32812 42.1496 7.00216C41.8682 6.9491 41.6248 6.96426 41.4499 6.85813C41.0543 6.61555 40.6968 6.56249 40.3317 6.9491C40.3013 6.91877 40.2785 6.88845 40.248 6.85813C40.4762 6.42604 40.6968 5.99396 40.925 5.56945C40.9022 5.53913 40.8794 5.51639 40.8566 5.48606C40.674 5.58461 40.461 5.65283 40.3089 5.7817C39.3733 6.58523 38.8713 7.6844 38.3693 8.76841C38.3464 8.81389 38.3693 8.87454 38.3693 8.9276L38.4605 8.98825C38.5822 8.8518 38.7115 8.71535 38.8332 8.58648C38.9702 8.44245 39.0995 8.29842 39.2972 8.09375C39.1679 8.48035 39.0767 8.76083 38.9854 9.04131V9.03373ZM38.4377 19.7298C38.4377 19.7298 38.4453 19.6616 38.4529 19.6237C38.1335 19.5782 37.814 19.5175 37.4869 19.5024C36.0949 19.4342 34.7486 19.6767 33.4099 20.033C32.2841 20.3362 31.1812 20.7077 30.1848 21.3217C29.949 21.4657 29.7436 21.6477 29.523 21.8144C29.5382 21.8372 29.5534 21.8675 29.5686 21.8902C32.4286 20.7986 35.3343 19.8738 38.4301 19.7298H38.4377ZM29.6979 3.71981C29.2416 4.10641 28.8612 4.43238 28.4809 4.76592C28.2755 4.94027 28.1082 5.03123 28.0093 4.67495C27.9941 4.61431 27.8952 4.56882 27.7735 4.47028C27.7431 4.76592 27.7355 4.97059 27.7051 5.17526C27.591 5.98637 27.4693 6.79749 27.3628 7.61618C27.3552 7.70714 27.4236 7.80569 27.4617 7.89666C27.5529 7.84359 27.667 7.80569 27.7203 7.72989C27.7963 7.61618 27.8115 7.46457 27.88 7.34328C28.2375 6.63072 28.6102 5.91815 28.9753 5.21317C29.0134 5.22833 29.0514 5.24349 29.097 5.25865V5.81202C29.097 5.81202 29.1503 5.81202 29.1731 5.8196C29.348 5.14494 29.5154 4.47028 29.7055 3.72739L29.6979 3.71981ZM28.2527 33.5566C29.3557 35.1864 30.6411 36.6418 32.4439 37.5363C31.3561 35.8838 29.9413 34.58 28.2527 33.5566ZM10.7884 15.2649C11.5566 13.9762 12.8117 13.4077 14.5612 13.5744C14.3482 13.4532 14.2265 13.3773 14.0972 13.3167C13.3365 12.9756 12.5759 13.059 11.8305 13.347C10.758 13.764 9.69307 14.196 8.63577 14.6509C8.08811 14.8859 7.57848 15.1967 7.05364 15.4771C7.06885 15.5075 7.08407 15.5378 7.09167 15.5681C7.67737 15.3331 8.27067 15.0981 8.88679 14.8555C8.902 15.1512 8.95524 15.4317 9.27471 15.4089C9.41924 15.4013 9.60179 15.2497 9.68546 15.1133C9.86801 14.8101 9.51051 14.7797 9.33556 14.613C9.89844 14.3855 10.4233 14.1733 11.0014 13.9383C10.8416 14.4083 10.5982 14.7949 10.7808 15.2725L10.7884 15.2649ZM38.1867 20.4348C38.1867 20.4348 38.1715 20.3741 38.1563 20.3438C35.9961 20.3438 34.0184 21.0715 32.0864 21.9433C34.1249 21.5415 36.171 21.1398 38.2095 20.738C38.2095 20.7228 38.2095 20.7001 38.2095 20.6849C38.1259 20.6622 38.0422 20.6394 37.9357 20.6091C38.0422 20.5409 38.1182 20.4878 38.1943 20.4348H38.1867ZM23.6889 9.01857C20.6083 9.42033 17.7635 10.4664 15.1545 12.1341C17.9765 11.035 20.73 9.73871 23.6889 9.01857ZM12.1956 16.4095C11.5795 15.4241 11.8229 14.5144 12.69 14.4462C12.6976 15.1967 12.7965 15.4013 13.1692 15.4468C13.5115 15.4847 13.7093 15.2725 13.9222 14.5675C14.1428 14.848 14.333 15.0905 14.5231 15.3255C14.4623 14.5599 13.9983 14.0293 13.3137 13.9459C12.69 13.8625 11.9522 14.3704 11.6936 15.0223C11.5186 15.462 11.6707 16.22 12.1956 16.4171V16.4095ZM28.4809 32.7379L28.4201 32.8137C28.6559 33.026 28.8764 33.2534 29.1275 33.4429C30.0402 34.1327 30.9606 34.8225 31.8962 35.4896C32.0787 35.6185 32.3222 35.6564 32.5427 35.7322C32.558 35.7019 32.5732 35.664 32.5884 35.6336C31.4398 34.3601 30.0783 33.3822 28.4885 32.7303L28.4809 32.7379ZM49.2236 37.1801C49.2693 37.1346 49.3225 37.0891 49.3757 37.0436C48.3108 35.7928 47.2536 34.5496 46.1887 33.2989C46.1506 33.3368 46.105 33.3671 46.0669 33.405C46.8048 34.9287 47.6339 36.3841 49.2236 37.1801ZM50.4482 36.6039C49.5127 35.2167 48.3413 34.0493 47.0634 32.9805C47.8925 34.4662 48.7748 35.899 50.4482 36.6039ZM51.1937 8.07101C49.3681 8.56374 47.8088 9.56436 46.3104 10.6635C47.9914 9.8979 49.8169 9.40517 51.1937 8.07101ZM48.1587 32.6318C49.0258 33.928 49.8549 35.2622 51.4295 35.8156C50.5928 34.4966 49.3833 33.549 48.1587 32.6318ZM36.0645 24.1037C36.1178 24.0203 36.1634 23.9521 36.2166 23.8763C36.1406 23.8384 36.0721 23.7778 35.9884 23.755C35.8515 23.7171 35.707 23.6716 35.5777 23.6868C34.2922 23.8005 33.0067 23.9218 31.7212 24.0507C31.7212 24.0886 31.7212 24.1341 31.7289 24.172C33.2197 24.2478 34.7106 24.4448 36.2927 24.2478C36.1634 24.1644 36.1025 24.1265 36.0645 24.1037ZM43.2754 8.60922C42.7886 8.29084 42.7582 8.22262 42.8418 7.79811C42.8646 7.69198 42.8266 7.58586 42.8114 7.47215C42.7049 7.51005 42.568 7.53279 42.4843 7.60102C41.891 8.09375 41.5107 8.73051 41.2141 9.42791C41.1988 9.45824 41.2141 9.50372 41.2141 9.59468C41.5487 9.32937 41.8454 9.09437 42.142 8.85938C42.1572 8.88212 42.1725 8.89728 42.1801 8.91244C42.0508 9.1626 41.9291 9.42033 41.7998 9.67049C41.8302 9.67807 41.853 9.69323 41.8834 9.70081C42.3398 9.33695 42.7962 8.97309 43.2678 8.60164L43.2754 8.60922ZM49.5659 7.82085C47.8697 8.12407 46.3332 8.81389 44.8575 9.66291C45.0477 9.61743 45.2379 9.5492 45.4204 9.48856C45.5117 9.45824 45.6638 9.40517 45.679 9.43549C45.9224 9.77662 46.1582 9.49614 46.3712 9.42791C47.5122 9.04131 48.5466 8.45003 49.5583 7.82085H49.5659ZM37.9737 21.7462C36.0113 21.352 34.239 22.0797 32.4439 22.6559C34.277 22.2768 36.171 22.2996 37.9737 21.7462ZM45.1238 33.5111C45.1238 33.5111 45.0629 33.5566 45.0325 33.5793C45.6942 35.1409 46.4777 36.6039 47.9686 37.5439C47.999 37.5212 48.037 37.4984 48.0674 37.4681C47.0862 36.1491 46.105 34.8301 45.1238 33.5035V33.5111ZM49.4746 11.7248C51.1252 11.2017 52.7682 10.6711 54.0841 9.46582C52.3955 9.8979 50.9579 10.853 49.4746 11.7248ZM31.1203 24.8315C32.6568 25.074 34.1629 25.5289 35.8363 25.491C35.6157 25.3697 35.4788 25.3014 35.2811 25.1953C35.5016 25.1726 35.6233 25.165 35.7526 25.1498C34.2314 24.6419 32.6721 24.8011 31.1203 24.839V24.8315ZM30.5346 25.4985C32.1472 25.9609 33.7293 26.5598 35.4332 26.6508C33.9271 25.7335 32.2537 25.5137 30.5346 25.4985ZM19.1402 27.9774C18.4709 27.6893 17.87 27.4316 17.2691 27.1738C16.8583 26.9919 16.4628 26.7948 16.052 26.6204C15.8162 26.5219 15.5728 26.484 15.3522 26.7417C16.44 27.6438 17.6494 28.0986 19.1326 27.9774H19.1402ZM36.9849 23.1258C36.9849 23.1258 36.9849 23.0804 36.9849 23.0652C36.886 23.0425 36.7871 23.0121 36.5894 22.9591C36.8404 22.8833 36.9925 22.8378 37.1446 22.7923C35.4484 22.5118 33.8663 22.9591 32.2917 23.4291C33.8587 23.3229 35.418 23.2244 36.9849 23.1183V23.1258ZM28.7547 32.2376C29.9718 32.9881 31.0975 33.9205 32.6721 34.1858C31.5463 33.0487 30.2152 32.5181 28.7547 32.2376ZM49.254 32.1769C50.0147 33.3974 50.9655 34.3829 52.3194 34.9135C51.5208 33.7461 50.4102 32.9274 49.254 32.1769ZM68.6048 18.3426C66.8477 18.8656 65.3112 19.7753 63.9344 20.9654C65.6002 20.2907 67.0987 19.3053 68.6048 18.3426ZM62.3979 30.9792C62.3979 30.9792 62.3219 31.0323 62.2914 31.055C62.9608 32.2679 63.6302 33.4808 64.2995 34.6937C64.33 34.6785 64.3604 34.6633 64.3908 34.6482C64.2463 34.2464 64.0942 33.8522 63.9496 33.4505C63.9648 33.4429 63.9801 33.4277 64.0029 33.4201C64.0713 33.4732 64.1398 33.5338 64.2159 33.5869C63.8279 32.556 63.2498 31.669 62.4055 30.9792H62.3979ZM17.2386 28.2427C16.3791 27.8712 15.4892 27.4846 14.5916 27.1132C14.3558 27.0146 14.0972 26.9995 13.7549 26.9312C14.371 27.8106 16.4704 28.5383 17.2386 28.2427ZM55.0121 10.1177C53.5593 10.474 52.3194 11.1411 51.0263 11.8688C52.2358 11.7779 54.3351 10.8606 55.0121 10.1177ZM32.6112 14.3097C32.6112 13.961 32.2385 13.5972 31.8734 13.5972C31.5539 13.5972 31.2877 13.8625 31.2877 14.1733C31.2877 14.5296 31.6604 14.8859 32.0255 14.8934C32.3298 14.8934 32.6112 14.6205 32.6112 14.3097ZM43.8763 33.405C44.4316 35.0045 45.7247 36.801 46.569 37.1725C45.6714 35.9141 44.7739 34.6633 43.8763 33.405ZM48.2804 10.8303C49.4822 10.4664 51.8022 9.04131 52.1977 8.42729C50.6993 8.9655 49.5051 9.92823 48.2804 10.8303ZM51.7565 12.5587C53.1637 12.2706 54.5405 11.9295 55.6815 11.0122C54.2743 11.2851 53.004 11.9067 51.7565 12.5587ZM50.2885 31.6084C51.1024 32.6166 51.9619 33.5793 53.2398 34.0038C52.4487 32.9729 51.3686 32.2906 50.2885 31.6084ZM50.0831 10.5953C51.2317 10.2466 52.3422 9.81452 53.1713 8.8897C52.0152 9.23082 51.0035 9.8221 50.0831 10.5953ZM52.6845 13.112C52.6845 13.112 52.715 13.1878 52.7226 13.2257C53.5365 13.203 55.7347 12.5662 56.1911 11.8461L52.6769 13.112H52.6845ZM40.0807 15.1436C40.0807 14.8404 39.7536 14.5068 39.4494 14.4993C39.1679 14.4993 38.8713 14.7797 38.8713 15.0526C38.8713 15.3483 39.2136 15.697 39.5026 15.7046C39.784 15.7046 40.0807 15.4241 40.0807 15.1512V15.1436ZM36.2851 14.4083C36.2851 14.0975 35.958 13.7943 35.6309 13.8019C35.3343 13.8019 35.0833 14.052 35.0909 14.3401C35.0909 14.6433 35.4484 14.9768 35.745 14.9617C36.0189 14.9541 36.2851 14.6736 36.2851 14.4083ZM29.4926 31.8131C30.3825 32.2376 31.3029 32.5408 32.3602 32.6014C31.7593 31.9571 30.6183 31.6463 29.4926 31.8131ZM64.5049 21.5036C65.7295 21.1398 66.8401 20.5561 67.8745 19.8056C66.6271 20.124 65.5318 20.7456 64.5049 21.5036ZM65.0297 22.9894C65.7219 23.0425 68.1256 22.3678 68.5667 22.0115C67.3041 22.1707 66.1327 22.4588 65.0297 22.9894ZM67.4866 27.6362C67.3801 27.5604 67.2736 27.4695 67.1595 27.4012C66.6879 27.1435 66.2163 26.8858 65.7295 26.6508C65.6459 26.6053 65.5089 26.6508 65.4025 26.6583C65.4329 26.7796 65.4177 26.9691 65.4937 27.0222C66.087 27.4088 66.7564 27.5907 67.4866 27.6362ZM33.3262 27.1511C32.6644 26.7038 30.3521 25.9761 29.5838 25.9685C30.8085 26.4916 31.9875 26.9161 33.3262 27.1511ZM56.4953 13.0438L56.4649 12.9453C55.4457 13.2636 54.4188 13.5744 53.3995 13.8928C53.4071 13.9231 53.4224 13.961 53.43 13.9914C54.2667 14.0368 55.9401 13.5214 56.4953 13.0438ZM64.832 22.2313C65.9197 22.0343 66.9161 21.6097 67.8365 21.0109C66.7412 21.1928 65.76 21.6401 64.832 22.2313ZM48.3032 17.8043C48.3032 17.5315 48.0446 17.2434 47.786 17.2358C47.5122 17.2358 47.3144 17.4102 47.3068 17.6831C47.2916 17.9939 47.5426 18.2668 47.8316 18.2743C48.0826 18.2743 48.3032 18.0545 48.3032 17.8043ZM62.261 33.8295C62.261 33.8295 62.3219 33.8143 62.3523 33.7992C62.1317 32.8516 61.333 30.8807 60.7778 30.532C61.295 31.6842 61.7818 32.7531 62.261 33.8219V33.8295ZM65.1971 32.8743C64.8244 31.9571 64.2691 31.1687 63.4932 30.5547C63.904 31.4416 64.4593 32.2224 65.1971 32.8743ZM66.7716 29.1372L66.8781 28.9856C66.3837 28.6141 65.8893 28.2351 65.3873 27.8712C65.3264 27.8257 65.2047 27.8485 65.1134 27.8485C65.1362 27.9698 65.1134 28.1669 65.1895 28.2123C65.7067 28.5383 66.2468 28.834 66.7716 29.1447V29.1372ZM67.7833 23.5049C66.9542 23.5655 66.1251 23.6262 65.2275 23.6944C65.4937 24.0355 67.0683 23.9142 67.7833 23.5049ZM56.4725 14.2946C56.4725 14.2946 56.4573 14.2188 56.4421 14.1809C55.5445 14.3931 54.6394 14.6054 53.7418 14.8176C53.7494 14.848 53.757 14.8859 53.7646 14.9162C54.7078 14.8707 55.6206 14.7267 56.4725 14.2946ZM44.0132 14.9541C44.0436 15.3407 44.1806 15.5378 44.4468 15.5378C44.7206 15.5378 44.8195 15.3179 44.8043 15.0754C44.7891 14.7949 44.5989 14.6281 44.3479 14.666C44.2034 14.6888 44.0893 14.8783 44.0132 14.9465V14.9541ZM51.4979 31.0399C51.4979 31.0399 51.4599 31.0929 51.4447 31.1233C52.1901 31.9268 53.217 32.6697 53.7114 32.6848C52.9736 32.139 52.2358 31.5857 51.4979 31.0399ZM67.441 26.2945C67.4562 26.2338 67.4638 26.1808 67.479 26.1201C66.9237 25.9534 66.3761 25.779 65.8208 25.6198C65.7524 25.5971 65.6611 25.6501 65.585 25.6729C65.6307 25.7563 65.6611 25.8927 65.7219 25.9079C66.2924 26.0519 66.8705 26.1732 67.441 26.2945ZM67.4638 25.0361C67.4638 24.9831 67.4714 24.9224 67.479 24.8694C66.9314 24.7936 66.3837 24.7177 65.8284 24.6495C65.7219 24.6419 65.6154 24.7026 65.5089 24.7329C65.6154 24.8011 65.7143 24.9224 65.8208 24.93C66.3685 24.9831 66.9161 24.9982 67.4638 25.0285V25.0361ZM56.8985 15.2421C56.8985 15.2421 56.8833 15.1739 56.8833 15.1436C56.039 15.3028 55.1947 15.462 54.3579 15.6136C54.3579 15.6439 54.3732 15.6742 54.3732 15.7121C55.2479 15.7273 56.0922 15.5984 56.8985 15.2421ZM44.4392 16.7507C44.4468 16.3868 44.3023 16.2276 44.0589 16.22C43.8611 16.2124 43.709 16.2655 43.7014 16.5005C43.6937 16.7658 43.8839 17.0008 44.1197 16.9553C44.2566 16.9326 44.3707 16.7961 44.4392 16.7507ZM64.3528 29.9483C64.7027 30.532 65.0754 31.0929 65.6383 31.4871C65.3492 30.8579 64.9613 30.3121 64.3528 29.9483ZM57.1647 16.1821V16.0912C56.4193 16.1821 55.6739 16.2731 54.9284 16.3641C55.6967 16.4929 56.4497 16.4929 57.1647 16.1897V16.1821ZM64.7483 28.9249C64.7483 28.9249 64.6951 29.0007 64.6646 29.0386C65.1515 29.448 65.6459 29.8649 66.1327 30.2742L66.224 30.1681C65.8132 29.6526 65.372 29.1827 64.7483 28.9249ZM51.6501 20.1391C51.8706 20.2907 52 20.4424 52.1445 20.4651C52.3651 20.503 52.5324 20.3135 52.4716 20.124C52.4259 19.9648 52.2205 19.8435 52.0912 19.707C51.9695 19.8208 51.8554 19.942 51.6501 20.1391ZM62.3067 23.285C62.3067 23.3381 62.3067 23.3987 62.3067 23.4518C62.4512 23.5504 62.5881 23.7171 62.7326 23.7247C62.8239 23.7323 62.9988 23.52 63.0217 23.3912C63.0521 23.1941 62.9228 23.0121 62.687 23.05C62.5501 23.0728 62.436 23.2017 62.3067 23.285ZM60.8538 23.467V23.3002C60.7245 23.2017 60.6028 23.0576 60.4583 23.0197C60.2225 22.9667 60.1236 23.1334 60.1312 23.3608C60.1312 23.5655 60.2073 23.7702 60.4507 23.7247C60.5952 23.702 60.7245 23.5579 60.8614 23.467H60.8538ZM43.3743 16.1745C43.1537 16.0078 43.0396 15.8713 42.8951 15.8258C42.7201 15.7728 42.5756 15.9016 42.6441 16.0836C42.6973 16.2276 42.8342 16.3641 42.9711 16.455C43.0092 16.4778 43.1689 16.3262 43.3819 16.1821L43.3743 16.1745ZM50.897 19.3962C51.11 19.5554 51.2317 19.6767 51.3762 19.7298C51.4143 19.745 51.5892 19.5479 51.6044 19.4342C51.6272 19.2219 51.4827 19.0703 51.2621 19.1006C51.1633 19.1158 51.0796 19.2446 50.897 19.3962ZM55.3848 17.1903V17.2965C55.9857 17.3344 56.579 17.395 57.1495 17.1827C57.1495 17.1524 57.1495 17.1221 57.1495 17.0918C56.5638 17.1221 55.9705 17.16 55.3848 17.1903ZM48.5314 18.6155C48.7064 18.7595 48.8129 18.9111 48.927 18.9187C49.0106 18.9187 49.2008 18.7064 49.178 18.6534C49.1247 18.5169 48.9878 18.4032 48.8585 18.3274C48.8281 18.3047 48.6836 18.4714 48.5238 18.6155H48.5314ZM18.9196 11.9598C18.9196 11.9598 18.9044 11.884 18.8892 11.8461C18.2123 11.9901 17.5277 12.1266 16.8507 12.2706C16.8583 12.3085 16.8659 12.354 16.8735 12.3919C17.5505 12.2479 18.2351 12.1038 18.9196 11.9598ZM24.3354 30.8352C24.9135 30.7746 25.2482 30.4941 25.2938 30.0165C24.9287 30.3273 24.6321 30.5775 24.3354 30.8352ZM56.1378 21.9433C55.9933 22.148 55.8488 22.2617 55.864 22.3451C55.8868 22.4512 56.0238 22.5573 56.1378 22.618C56.1759 22.6407 56.366 22.4967 56.3584 22.4588C56.328 22.3147 56.2443 22.1859 56.1378 21.9433ZM42.5604 17.7968C42.6745 17.395 42.5832 17.1676 42.2713 17.016C42.1649 17.4177 42.2409 17.63 42.5604 17.7968ZM47.4741 19.0854C47.4285 19.1006 47.3829 19.1158 47.3372 19.1309C47.3981 19.419 47.4513 19.7146 47.5274 20.0027C47.5426 20.0558 47.6187 20.0861 47.6643 20.1316C47.7099 20.0709 47.8012 19.9951 47.786 19.9572C47.6947 19.6616 47.5806 19.3735 47.4741 19.0854ZM46.4929 18.6382C46.4473 18.6534 46.394 18.6761 46.3484 18.6913C46.4016 18.9414 46.4473 19.1916 46.5157 19.4417C46.5309 19.5024 46.6222 19.5327 46.6831 19.5782C46.7211 19.51 46.8048 19.4342 46.7896 19.3887C46.7059 19.1309 46.5994 18.8884 46.5005 18.6382H46.4929ZM43.1613 17.3344C43.2526 17.6073 43.3515 17.8877 43.4732 18.244C43.6861 17.8119 43.5873 17.5163 43.1613 17.3344ZM45.5193 19.0172C45.7551 18.6609 45.5953 18.2289 45.215 18.0545C45.3215 18.4032 45.4204 18.714 45.5193 19.0172ZM24.1529 30.1757C24.1148 30.1226 24.0692 30.0696 24.0312 30.0165C23.7649 30.2363 23.4911 30.4638 23.2249 30.6836C23.2629 30.7291 23.3009 30.7746 23.339 30.82C23.6128 30.6078 23.8866 30.3879 24.1605 30.1757H24.1529ZM50.106 20.3211C50.1288 20.6546 50.0831 21.0109 50.3265 21.3369C50.4939 21.0109 50.4254 20.6925 50.106 20.3211ZM56.9213 22.9212C56.8833 22.9212 56.8376 22.9288 56.7996 22.9363C56.7616 23.0273 56.6779 23.1334 56.7007 23.2092C56.7311 23.3229 56.83 23.4139 56.8985 23.52C56.9669 23.4442 57.0963 23.3608 57.0886 23.2926C57.081 23.1713 56.9822 23.05 56.9289 22.9288L56.9213 22.9212ZM38.2399 16.6445C38.4681 16.2807 38.3312 15.9244 37.8901 15.6667C38.0194 16.0154 38.1106 16.2807 38.2399 16.6445ZM32.4971 15.3862C32.4819 15.8334 32.5884 15.9926 32.9002 16.0229C32.9231 15.7273 32.8318 15.5075 32.4971 15.3862ZM40.4154 17.0918C40.4154 17.0918 40.4838 17.0615 40.5143 17.0463C40.4078 16.781 40.2937 16.5081 40.1872 16.2428C40.0427 16.6976 40.1111 16.8871 40.4154 17.0918ZM43.321 14.9162C43.321 14.9162 43.3971 14.9086 43.4351 14.901C43.4656 14.8176 43.5492 14.7115 43.5188 14.6433C43.4732 14.5296 43.3667 14.4462 43.283 14.3476C43.2298 14.431 43.1233 14.522 43.1309 14.5978C43.1537 14.7115 43.2526 14.8101 43.3134 14.9162H43.321ZM35.3419 16.1366C35.4104 16.1063 35.4788 16.076 35.5397 16.0381C35.418 15.8031 35.2963 15.5605 35.1746 15.3179L35.03 15.3862C35.1365 15.6363 35.2354 15.8789 35.3419 16.1291V16.1366ZM53.1713 20.4878C53.0801 20.6622 52.9964 20.7456 53.004 20.8138C53.0268 20.9199 53.1105 21.0109 53.1713 21.1094C53.2398 21.0336 53.3615 20.9654 53.3691 20.8896C53.3691 20.7911 53.2778 20.6925 53.1713 20.4878ZM42.5604 14.1581C42.4083 14.052 42.3246 13.9686 42.2257 13.9383C42.1953 13.9307 42.066 14.0823 42.0812 14.1278C42.1116 14.2339 42.2029 14.3173 42.2713 14.4083C42.3474 14.3401 42.4235 14.2794 42.5604 14.1581ZM39.2212 16.6218L39.3201 16.5839C39.3581 16.2883 39.3277 16.0229 38.9245 15.8258C39.0462 16.1442 39.1299 16.3792 39.2212 16.6218ZM55.2327 21.1246C55.1262 21.2762 55.0273 21.3672 55.0425 21.4354C55.0577 21.5264 55.149 21.6097 55.2175 21.6931C55.2783 21.6249 55.3924 21.5643 55.3924 21.496C55.3924 21.4051 55.3164 21.3065 55.2327 21.1322V21.1246ZM22.1448 30.4183C22.6468 30.3728 22.8293 30.2363 22.8902 29.8497C22.6392 30.0392 22.411 30.2136 22.1448 30.4183ZM48.5466 20.7532C48.5999 20.7456 48.6531 20.738 48.7064 20.7304C48.6683 20.503 48.6303 20.2832 48.5923 20.0557C48.5466 20.0633 48.501 20.0709 48.4478 20.0785C48.4782 20.3059 48.5162 20.5257 48.5466 20.7532ZM49.2845 19.8132C49.2236 19.8283 49.1628 19.8359 49.0943 19.8511C49.1475 20.0633 49.2008 20.2832 49.2464 20.4954C49.2921 20.4878 49.3377 20.4727 49.391 20.4651L49.2845 19.8132ZM33.8587 16.3262C33.7369 16.0987 33.6457 15.9168 33.5544 15.7425C33.4935 16.1897 33.524 16.2579 33.8587 16.3262ZM57.8569 24.1189C57.9101 24.1037 57.971 24.0961 58.0242 24.081C57.9862 23.9142 57.9482 23.7399 57.9101 23.5731C57.8493 23.5883 57.7884 23.6034 57.7276 23.611C57.7656 23.7778 57.8113 23.9445 57.8493 24.1189H57.8569Z" fill="#DDCFB4"/>
</svg>
